@startuml
hide stereotype
hide circle
!include ../../../../style/default.iuml

package "webhooks_spanner" {
  entity "**DATABASECHANGELOG**" [[webhooks_spanner_DATABASECHANGELOG.puml]] {}
  entity "**DATABASECHANGELOGLOCK**" [[webhooks_spanner_DATABASECHANGELOGLOCK.puml]] {}
  entity "**delivery_history**" [[webhooks_spanner_delivery_history.puml]] {}
  entity "**event_types**" [[webhooks_spanner_event_types.puml]] {}
  entity "**webhook_events**" [[webhooks_spanner_webhook_events.puml]] {}
  entity "**webhooks**" [[webhooks_spanner_webhooks.puml]] {}
}

hide empty fields
hide empty methods
"**webhook_events**" -- "**event_types**"
"**webhook_events**" -- "**webhooks**"

@enduml