@startuml
hide stereotype
hide circle
!include ../../../../style/default.iuml

package "conduttore" {
  entity "**camel_messageprocessed**" [[conduttore_camel_messageprocessed.puml]] {}
  entity "**close_purchase_order_signal**" [[conduttore_close_purchase_order_signal.puml]] {}
  entity "**qrtz_blob_triggers**" [[conduttore_qrtz_blob_triggers.puml]] {}
  entity "**qrtz_calendars**" [[conduttore_qrtz_calendars.puml]] {}
  entity "**qrtz_cron_triggers**" [[conduttore_qrtz_cron_triggers.puml]] {}
  entity "**qrtz_fired_triggers**" [[conduttore_qrtz_fired_triggers.puml]] {}
  entity "**qrtz_job_details**" [[conduttore_qrtz_job_details.puml]] {}
  entity "**qrtz_locks**" [[conduttore_qrtz_locks.puml]] {}
  entity "**qrtz_paused_trigger_grps**" [[conduttore_qrtz_paused_trigger_grps.puml]] {}
  entity "**qrtz_scheduler_state**" [[conduttore_qrtz_scheduler_state.puml]] {}
  entity "**qrtz_simple_triggers**" [[conduttore_qrtz_simple_triggers.puml]] {}
  entity "**qrtz_simprop_triggers**" [[conduttore_qrtz_simprop_triggers.puml]] {}
  entity "**qrtz_triggers**" [[conduttore_qrtz_triggers.puml]] {}
  entity "**ragtime_migrations**" [[conduttore_ragtime_migrations.puml]] {}
  entity "**reserved_inventory_items**" [[conduttore_reserved_inventory_items.puml]] {}
  entity "**sales_history_items**" [[conduttore_sales_history_items.puml]] {}
  entity "**sent_run_cgo_signal**" [[conduttore_sent_run_cgo_signal.puml]] {}
}

hide empty fields
hide empty methods
"**qrtz_blob_triggers**" -- "**qrtz_triggers**"
"**qrtz_cron_triggers**" -- "**qrtz_triggers**"
"**qrtz_simple_triggers**" -- "**qrtz_triggers**"
"**qrtz_simprop_triggers**" -- "**qrtz_triggers**"
"**qrtz_triggers**" -- "**qrtz_job_details**"

@enduml