@startuml
hide stereotype
hide circle
!include ../../../../style/default.iuml

package "owm" {
  entity "**cutoffs**" [[owm_cutoffs.puml]] {}
  entity "**mfc_locations**" [[owm_mfc_locations.puml]] {}
  entity "**qrtz_blob_triggers**" [[owm_qrtz_blob_triggers.puml]] {}
  entity "**qrtz_calendars**" [[owm_qrtz_calendars.puml]] {}
  entity "**qrtz_cron_triggers**" [[owm_qrtz_cron_triggers.puml]] {}
  entity "**qrtz_fired_triggers**" [[owm_qrtz_fired_triggers.puml]] {}
  entity "**qrtz_job_details**" [[owm_qrtz_job_details.puml]] {}
  entity "**qrtz_locks**" [[owm_qrtz_locks.puml]] {}
  entity "**qrtz_paused_trigger_grps**" [[owm_qrtz_paused_trigger_grps.puml]] {}
  entity "**qrtz_scheduler_state**" [[owm_qrtz_scheduler_state.puml]] {}
  entity "**qrtz_simple_triggers**" [[owm_qrtz_simple_triggers.puml]] {}
  entity "**qrtz_simprop_triggers**" [[owm_qrtz_simprop_triggers.puml]] {}
  entity "**qrtz_triggers**" [[owm_qrtz_triggers.puml]] {}
  entity "**ragtime_migrations**" [[owm_ragtime_migrations.puml]] {}
}

hide empty fields
hide empty methods
"**cutoffs**" -- "**mfc_locations**"
"**qrtz_blob_triggers**" -- "**qrtz_triggers**"
"**qrtz_cron_triggers**" -- "**qrtz_triggers**"
"**qrtz_simple_triggers**" -- "**qrtz_triggers**"
"**qrtz_simprop_triggers**" -- "**qrtz_triggers**"
"**qrtz_triggers**" -- "**qrtz_job_details**"

@enduml